# xmcd CD database file
#
# Track frame offsets:
#	150
#	20257
#	36967
#
# Disc length: 837 seconds
#
# Revision: 0
# Processed by: cddbd v1.5.1PL0 Copyright (c) Steve Scherf et al.
# Submitted via: CDex 1.50
#
DISCID=1a034303
DTITLE=NEW CINEMA 蜥蜴 - Green Love
DYEAR=2001
DGENRE=J-POP
TTITLE0=Green Love
TTITLE1=FLOWER of RAINBOW
TTITLE2=Green Love〜Disco 2001 Spin Mix〜
EXTD=YEAR: 2001
EXTT0=
EXTT1=
EXTT2=
PLAYORDER=
